<svg width="100" height="45" viewBox="0 0 100 45" fill="none" xmlns="http://www.w3.org/2000/svg">
<g clip-path="url(#clip0_1_212)">
<path d="M78.5471 2.59832C79.1811 5.45637 76.9981 8.21476 73.9551 6.91409C70.7081 5.52584 71.4561 0.588923 74.9561 0.15805C76.7241 -0.0593996 78.1411 0.771137 78.5471 2.59832Z" fill="#6E4675"/>
<path d="M88.4279 4.04597C89.4269 2.93054 91.3229 2.59228 92.2689 3.98054C92.2781 3.99373 92.2919 4.00287 92.3075 4.00606C92.3232 4.00925 92.3395 4.00624 92.3529 3.99765C92.7489 3.74094 93.1409 3.51644 93.6289 3.4953C94.4029 3.46208 95.1549 4.00369 95.6689 4.56242C96.1756 5.11208 96.9373 5.9 97.9539 6.92618C98.5789 7.55638 99.4059 8.4443 99.4569 9.27181C99.4769 9.59698 99.2299 9.96141 99.0699 10.1859C97.3599 12.5873 95.3846 14.6101 93.1439 16.2544C92.4013 16.7993 91.5923 16.8547 90.7169 16.4205C90.3219 16.2242 89.9199 15.8003 89.5609 15.3946C88.4709 14.1634 87.1709 13.0973 86.3249 11.6718C85.8929 10.943 86.3279 9.81745 86.8349 9.24061C86.8569 9.2151 86.8569 9.18994 86.8349 9.1651C86.4096 8.67987 86.0929 8.13154 85.8849 7.52014C85.8818 7.51159 85.8767 7.50391 85.8701 7.49775C85.8634 7.49158 85.8555 7.48712 85.8468 7.48475C85.8382 7.48238 85.8291 7.48216 85.8204 7.48411C85.8117 7.48607 85.8037 7.49014 85.7969 7.49597C85.1443 8.05638 84.4899 8.62282 83.8339 9.1953C82.5529 10.3158 80.1629 12.8597 81.5779 14.707C82.5759 16.0097 85.0909 16.5836 86.6279 16.7688C87.6373 16.8896 88.6483 17.0034 89.6609 17.1101C91.0679 17.2581 93.1339 17.554 93.7439 19.0601C93.8659 19.3607 93.9526 19.7768 94.0039 20.3084C94.1646 21.9721 94.0996 23.6262 93.8089 25.2705C93.5999 26.4513 93.1609 27.8607 92.3189 28.7104C91.4739 29.5631 89.8759 29.406 89.1099 28.6057C88.1219 27.5748 89.0059 26.0034 89.1549 24.7389C89.2189 24.1923 89.4559 22.5352 88.7909 22.3117C88.4776 22.2057 88.1556 22.1372 87.8249 22.1064C86.3243 21.9648 85.2909 21.8718 84.7249 21.8275C83.5059 21.7319 82.1299 21.744 80.9289 22.1326C80.4989 22.2715 80.0113 22.4987 79.4659 22.8141C78.3779 23.4436 77.3083 24.2312 76.2569 25.1768C74.3529 26.8889 72.6039 28.8101 71.0099 30.9403C70.3169 31.8654 69.2539 33.1419 68.0059 33.2628C66.7059 33.3886 65.5299 32.5873 65.4309 31.2081C65.2989 29.3728 67.4919 27.1369 68.6629 25.9309C70.0949 24.4577 71.4639 22.9262 72.7699 21.3362C73.8119 20.0688 75.1259 18.1933 74.8099 16.4406C74.5719 15.1248 73.4599 14.2309 72.3329 13.6359C70.8223 12.8379 69.3113 12.0406 67.7999 11.244C66.2719 10.4386 64.5919 9.67551 63.7149 8.24799C62.2779 5.90839 65.0179 4.86544 66.7709 5.45839C67.0449 5.55101 67.3956 5.74832 67.8229 6.05034C70.4059 7.87852 73.7139 10.3802 77.0329 9.25973C78.3639 8.80973 79.6329 7.76376 80.6129 6.70772C81.3609 5.90168 82.1199 5.10571 82.8899 4.3198C83.8399 3.35034 85.2829 2.16242 86.6109 2.19262C87.3776 2.21007 87.9253 2.63759 88.2539 3.47517C88.3169 3.63524 88.3269 3.84564 88.3619 4.02785C88.3719 4.07886 88.3939 4.0849 88.4279 4.04597ZM88.5509 7.38926C88.5363 7.43624 88.5506 7.44866 88.5939 7.42651C89.3019 7.06712 90.3279 6.56175 90.5209 5.68993C90.5276 5.65906 90.5156 5.64765 90.4849 5.65571C89.4809 5.91644 88.8739 6.35638 88.5509 7.38926ZM96.6789 9.74295C97.2779 9.24061 96.7279 8.87819 96.3709 8.53591C95.5389 7.73792 94.7366 6.9104 93.9639 6.05336C93.8573 5.93457 93.7506 5.91074 93.6439 5.98188C93.3806 6.15839 93.0563 6.44497 92.6709 6.84161C91.6589 7.88322 90.5926 8.86477 89.4719 9.78624C89.3119 9.91712 88.5759 10.649 88.6109 10.9681C88.6519 11.3446 89.4639 12.0272 89.7719 12.3C90.4269 12.8809 90.9149 13.8886 91.6969 14.2621C91.7278 14.2769 91.7629 14.2791 91.7949 14.2681C91.9243 14.2245 92.0399 14.1554 92.1419 14.0607C92.4506 13.7755 92.7489 13.4802 93.0369 13.1748C94.1849 11.9587 95.3989 10.8148 96.6789 9.74295Z" fill="#6E4675"/>
<path d="M16.4929 8.86712C16.3162 8.78658 16.2105 8.65134 16.1759 8.46141C15.9219 7.06208 15.9469 5.66812 16.2509 4.27953C16.3489 3.82752 16.5919 2.98389 16.9669 2.63154C17.0569 2.54698 17.1742 2.50269 17.3189 2.49866C18.9799 2.45034 18.8379 4.59564 18.6289 5.66376C18.4102 6.77987 18.1639 7.79128 17.8899 8.69799C17.8799 8.73154 17.8605 8.75806 17.8319 8.77752C17.4212 9.05806 16.9749 9.08792 16.4929 8.86712Z" fill="#DDEA73"/>
<path d="M9.40878 4.45671C9.73078 3.79296 10.2378 3.54296 10.9298 3.70671C11.3558 3.80738 11.6948 4.37517 11.9588 4.74665C12.5318 5.55101 14.3368 8.12014 13.6948 9.00906C12.8338 10.201 11.7048 9.21242 11.1248 8.33054C10.7208 7.71644 10.3165 7.10235 9.91179 6.48826C9.55979 5.95369 9.10978 5.07181 9.40878 4.45671Z" fill="#DDEA73"/>
<path d="M4.20205 7.81309C5.33905 7.50201 6.23705 8.52886 6.98105 9.19631C7.64205 9.79128 9.15105 10.6077 9.04205 11.6597C9.00938 11.9772 8.85038 12.1977 8.56505 12.3211C7.51705 12.7752 6.55005 12.4138 5.77505 11.6487C5.10205 10.9852 4.43005 10.353 3.81005 9.63423C3.66671 9.46846 3.58005 9.30168 3.55005 9.13389C3.45905 8.62651 3.64205 7.96611 4.20205 7.81309Z" fill="#DDEA73"/>
<path d="M36.691 9.73288C36.841 9.29396 37.228 9.05436 37.689 9.02214C39.66 8.88523 39.259 12.2205 39.164 13.4174C38.958 16.0138 39 18.6312 38.877 21.2346C38.8424 21.9721 38.8537 22.7799 38.911 23.6577C38.989 24.8557 38.781 26.5742 37.074 26.0778C36.6114 25.9436 36.337 25.6242 36.251 25.1195C36.091 24.1802 36.322 22.8141 36.398 21.7289C36.495 20.3275 36.442 18.8597 36.476 17.4292C36.476 17.4265 36.5017 16.9315 36.553 15.9443C36.626 14.5258 36.442 13.1215 36.411 11.704C36.3964 10.9825 36.4897 10.3255 36.691 9.73288Z" fill="#6E4675"/>
<path d="M14.275 24.754C13.4097 23.9534 12.8883 22.956 12.711 21.7621C12.264 18.752 13.484 15.8023 15.242 13.4567C16.3427 11.9883 17.7407 10.9453 19.436 10.3279C19.944 10.1728 20.5487 10.1691 21.25 10.3168C21.5913 10.3893 21.9223 10.3332 22.243 10.1487C22.4983 10.0023 22.663 9.92148 22.737 9.90604C23.436 9.76208 23.888 10.4859 24.068 11.0768C24.2633 11.7211 24.3013 12.4117 24.182 13.1487C24.098 13.6701 23.777 14.4201 23.174 14.4433C22.508 14.4685 22.159 14.1775 21.751 13.6581C21.561 13.4164 21.382 13.1356 21.121 12.9926C20.208 12.4903 18.966 13.204 18.308 13.8513C16.9247 15.2151 15.9277 16.8473 15.317 18.748C14.995 19.7487 14.909 20.9094 15.413 21.8366C15.717 22.3963 16.345 23.1272 16.998 23.2913C17.2033 23.343 17.4653 23.3641 17.784 23.3547C19.367 23.3084 20.459 22.356 21.647 21.5416C21.867 21.3913 22.0497 21.3027 22.195 21.2758C23.027 21.1258 23.713 21.8789 23.666 22.6802C23.6407 23.1144 23.4437 23.4913 23.075 23.8107C21.4923 25.1799 19.6507 25.8943 17.55 25.954C16.236 25.9923 15.295 25.5282 14.275 24.754Z" fill="#6E4675"/>
<path d="M19.4359 10.3279C17.7406 10.9453 16.3426 11.9883 15.2419 13.4567C13.4839 15.8024 12.2639 18.752 12.7109 21.7621C12.8883 22.956 13.4096 23.9534 14.2749 24.754C13.9803 24.7312 13.7216 24.6423 13.4989 24.4872C13.3463 24.3805 13.2163 24.3067 13.1089 24.2658C8.20394 22.4003 7.69794 14.4664 11.9389 11.6487C14.2256 10.1299 16.7246 9.6896 19.4359 10.3279Z" fill="#DDEA73"/>
<path d="M61.7994 11.1228C61.5382 11.8908 61.9258 12.7199 62.6652 12.9748C63.4045 13.2296 64.2156 12.8136 64.4768 12.0456C64.738 11.2777 64.3503 10.4485 63.611 10.1937C62.8716 9.93884 62.0606 10.3548 61.7994 11.1228Z" fill="#6E4675"/>
<path d="M46.4268 14.6094C47.0701 14.453 47.7605 14.4688 48.4978 14.6567C49.3308 14.8691 50.3488 15.6594 49.6358 16.5745C49.3071 16.9966 48.9038 17.1893 48.4258 17.1524C47.7951 17.1047 47.2111 17.1232 46.6738 17.2077C46.5305 17.2299 46.4515 17.3161 46.4368 17.4664C46.2138 19.8252 46.8958 22.1013 46.7238 24.4621C46.6768 25.0983 46.4228 26.0557 45.7488 26.2631C45.0328 26.4826 44.0388 26.1997 44.0518 25.2977C44.0911 22.7158 44.0445 20.1117 43.9118 17.4856C43.9107 17.4633 43.9021 17.442 43.8874 17.4254C43.8726 17.4087 43.8527 17.3976 43.8308 17.394C43.6188 17.3587 43.4018 17.2862 43.1838 17.2701C42.7951 17.2426 42.3191 17.1873 41.7558 17.104C41.2511 17.0289 40.9475 16.7567 40.8448 16.2876C40.4228 14.3628 42.6118 14.4997 43.7178 14.694C43.7358 14.6971 43.7542 14.6962 43.7718 14.6913C43.7894 14.6863 43.8057 14.6775 43.8195 14.6655C43.8333 14.6534 43.8442 14.6384 43.8515 14.6216C43.8589 14.6048 43.8624 14.5865 43.8618 14.5681C43.8478 14.0829 43.8335 13.601 43.8188 13.1225C43.7898 12.1571 43.8008 11.3024 44.8768 11.1383C46.4548 10.8977 46.5038 13.6208 46.3758 14.5631C46.3698 14.6034 46.3868 14.6188 46.4268 14.6094Z" fill="#6E4675"/>
<path d="M31.494 25.7909C29.478 26.5319 26.489 26.5862 25.526 24.1631C25.3627 23.7523 25.238 23.1064 25.152 22.2252C24.9594 20.2426 24.976 18.2621 25.202 16.2836C25.289 15.5225 25.345 14.6396 26.3 14.4976C28.087 14.2309 27.71 16.3037 27.594 17.4604C27.422 19.1748 27.338 21.1681 27.736 22.8544C27.874 23.4403 28.271 23.6174 28.856 23.6255C29.7427 23.6376 30.6024 23.4976 31.435 23.2057C31.4497 23.2006 31.4626 23.1913 31.4722 23.179C31.4817 23.1666 31.4876 23.1518 31.489 23.1362C31.702 20.703 31.141 18.2809 31.556 15.8557C31.596 15.6221 31.6667 15.4017 31.768 15.1943C32.237 14.2359 34.189 14.4201 34.149 15.5537C34.0317 18.8544 33.9944 22.156 34.037 25.4587C34.044 25.9782 33.687 26.3638 33.202 26.4735C32.5007 26.6325 31.958 26.4141 31.574 25.8181C31.5547 25.7872 31.528 25.7782 31.494 25.7909Z" fill="#6E4675"/>
<path d="M53.6582 15.9866C55.0382 15.1923 56.1692 14.4805 57.7612 14.5802C58.7722 14.6436 59.2522 15.5809 59.4442 16.4869C59.6682 17.544 59.7452 19.494 58.2602 19.5856C57.4762 19.6346 57.0762 19.2631 57.0602 18.4711C57.0529 18.096 57.0379 17.6923 57.0152 17.2601C57.0141 17.2399 57.0088 17.2202 56.9995 17.2023C56.9903 17.1844 56.9774 17.1687 56.9616 17.1563C56.9459 17.1439 56.9277 17.135 56.9083 17.1303C56.8889 17.1257 56.8687 17.1253 56.8492 17.1292C55.5852 17.3819 53.8712 18.1752 53.5572 19.5866C53.4262 20.1735 53.4282 20.8641 53.4632 21.5597C53.5012 22.3007 53.5379 23.0419 53.5732 23.7836C53.6152 24.6644 53.5362 25.5383 53.0682 26.2369C53.0509 26.2631 53.0272 26.2819 52.9972 26.2933C52.3742 26.5238 51.2692 26.4322 51.2252 25.5554C51.1252 23.6071 51.0789 21.6584 51.0862 19.7094C51.0892 18.6322 51.1822 17.4232 51.2202 16.2775C51.2369 15.7728 51.2772 15.4456 51.3412 15.296C51.5025 14.9161 51.8392 14.749 52.3512 14.7946C52.8525 14.8389 53.2182 15.1027 53.4482 15.5859C53.4992 15.6906 53.5152 15.8225 53.5622 15.9513C53.5656 15.9605 53.5709 15.9689 53.5778 15.9758C53.5847 15.9827 53.593 15.988 53.6021 15.9913C53.6112 15.9947 53.621 15.996 53.6307 15.9952C53.6404 15.9944 53.6498 15.9914 53.6582 15.9866Z" fill="#6E4675"/>
<path d="M61.7372 15.4581C62.2352 14.6789 63.4402 14.6869 63.9262 15.5124C63.9909 15.6232 64.0159 15.7581 64.0012 15.9171C63.8859 17.1802 63.8596 18.2252 63.9222 19.052C64.0636 20.9292 64.1002 22.6909 64.0322 24.3372C64.0089 24.905 63.7622 25.3547 63.2922 25.6862C63.2662 25.7046 63.2353 25.7151 63.2032 25.7164C62.9406 25.7272 62.6806 25.7289 62.4232 25.7215C62.2386 25.7161 62.0869 25.6695 61.9682 25.5815C61.5412 25.2654 61.4602 24.9332 61.4412 24.3785C61.3426 21.5792 61.3896 18.7829 61.5822 15.9896C61.5969 15.7742 61.6486 15.597 61.7372 15.4581Z" fill="#6E4675"/>
<path d="M3.04883 18.0926C2.4895 18.0597 1.95983 17.9762 1.45983 17.8419C0.655832 17.6275 0.818832 16.1466 1.36483 15.7399C1.48816 15.648 1.77083 15.5758 2.21283 15.5235C3.47216 15.3745 4.72617 15.4111 5.97483 15.6332C6.30883 15.6923 6.6325 15.7862 6.94583 15.9151C7.19383 16.0168 7.21283 16.1376 7.23783 16.3832C7.29983 17.0023 7.12883 17.4966 6.52183 17.706C5.40783 18.0896 4.24083 18.1621 3.04883 18.0926Z" fill="#DDEA73"/>
<path d="M3.72502 22.3409C4.71202 21.7782 5.77702 21.3564 6.87702 21.0815C7.25202 20.9879 7.90003 20.8178 8.11903 21.155C8.47569 21.706 8.51003 22.1936 8.22203 22.6178C8.09002 22.8131 7.76436 23.0906 7.24502 23.4503C6.15569 24.2054 4.97402 24.7265 3.70002 25.0138C3.05902 25.1587 2.76202 24.75 2.55702 24.1993C2.17302 23.1705 2.91302 22.803 3.72502 22.3409Z" fill="#DDEA73"/>
<path d="M39.2439 39.3091V43.0752C39.2439 43.0968 39.2353 43.1175 39.2199 43.1328C39.2045 43.1481 39.1837 43.1567 39.1619 43.1567H38.5419C38.5271 43.1567 38.5128 43.1508 38.5023 43.1402C38.4918 43.1296 38.4859 43.1153 38.4859 43.1003L38.4819 39.3383C38.4819 39.3276 38.4798 39.317 38.4757 39.3072C38.4717 39.2974 38.4657 39.2884 38.4581 39.2809C38.4506 39.2735 38.4417 39.2675 38.4319 39.2636C38.422 39.2596 38.4115 39.2576 38.4009 39.2577L37.7959 39.2688C37.7876 39.2689 37.7793 39.2674 37.7715 39.2643C37.7638 39.2611 37.7567 39.2565 37.7507 39.2506C37.7448 39.2447 37.7401 39.2376 37.7368 39.2299C37.7336 39.2221 37.7319 39.2138 37.7319 39.2054V38.6617C37.7319 38.6534 37.7336 38.6451 37.7368 38.6374C37.74 38.6297 37.7446 38.6227 37.7505 38.6169C37.7564 38.6111 37.7633 38.6065 37.771 38.6035C37.7786 38.6005 37.7868 38.5991 37.7949 38.5993L38.4469 38.6104C38.454 38.6105 38.4611 38.6092 38.4676 38.6065C38.4742 38.6038 38.4801 38.5998 38.4851 38.5947C38.49 38.5896 38.4939 38.5836 38.4965 38.5769C38.499 38.5703 38.5002 38.5632 38.4999 38.556C38.4659 37.8393 38.4129 37.0671 39.2709 36.8587C39.5743 36.7849 39.8763 36.7849 40.1769 36.8587C40.2109 36.8668 40.2279 36.8886 40.2279 36.9242L40.2249 37.4728C40.2249 37.4803 40.2232 37.4876 40.2198 37.4943C40.2165 37.5009 40.2117 37.5067 40.2058 37.5112C40.1999 37.5157 40.1931 37.5187 40.1858 37.5201C40.1785 37.5215 40.1711 37.5211 40.1639 37.5191C39.2049 37.2362 39.2069 37.8765 39.2509 38.5591C39.2529 38.5913 39.2696 38.607 39.3009 38.6064L40.0529 38.6003C40.0609 38.6002 40.0688 38.6017 40.0762 38.6046C40.0836 38.6076 40.0903 38.612 40.096 38.6177C40.1017 38.6233 40.1062 38.63 40.1093 38.6374C40.1123 38.6448 40.1139 38.6527 40.1139 38.6607L40.1129 39.1973C40.1129 39.247 40.0883 39.2711 40.0389 39.2698L39.3029 39.2507C39.2953 39.2504 39.2877 39.2517 39.2805 39.2545C39.2734 39.2573 39.2668 39.2616 39.2613 39.267C39.2558 39.2725 39.2515 39.279 39.2485 39.2862C39.2455 39.2935 39.2439 39.3012 39.2439 39.3091Z" fill="#6E4675"/>
<path d="M6.42293 38.1332C6.42293 37.9681 6.39426 37.9628 6.33693 38.1171L4.47793 43.1104C4.46526 43.1453 4.44026 43.1628 4.40293 43.1628L3.81093 43.1557C3.77026 43.155 3.7426 43.1356 3.72793 43.0973L1.86993 38.1121C1.82193 37.9839 1.79826 37.9883 1.79893 38.1252L1.80393 43.0953C1.80393 43.1376 1.78326 43.1587 1.74193 43.1587L1.06393 43.1607C1.02326 43.1607 1.00293 43.1403 1.00293 43.0993V36.9352C1.00293 36.8963 1.02226 36.8768 1.06093 36.8768L2.09293 36.8748C2.1256 36.8748 2.14793 36.8903 2.15993 36.9211L4.07993 42.0805C4.08159 42.0849 4.08453 42.0887 4.08837 42.0914C4.09221 42.094 4.09676 42.0955 4.10143 42.0955C4.10609 42.0955 4.11065 42.094 4.11449 42.0914C4.11833 42.0887 4.12127 42.0849 4.12293 42.0805L6.04493 36.9352C6.06026 36.8943 6.0896 36.8742 6.13293 36.8748L7.14193 36.8768C7.1826 36.8768 7.20293 36.8973 7.20293 36.9383L7.20193 43.0973C7.20193 43.1396 7.18126 43.1607 7.13993 43.1607L6.47993 43.1537C6.43926 43.1537 6.41893 43.1332 6.41893 43.0923L6.42293 38.1332Z" fill="#6E4675"/>
<path d="M14.2211 42.6604L14.2581 43.0913C14.2589 43.0995 14.2581 43.1078 14.2555 43.1156C14.253 43.1235 14.2489 43.1307 14.2434 43.1369C14.238 43.143 14.2313 43.148 14.2238 43.1514C14.2164 43.1548 14.2083 43.1566 14.2001 43.1567L13.5601 43.1607C13.5181 43.1607 13.4971 43.1396 13.4971 43.0973L13.4961 36.9252C13.4961 36.8916 13.5128 36.8748 13.5461 36.8748H14.1801C14.2 36.8748 14.2191 36.8829 14.2331 36.8972C14.2472 36.9116 14.2551 36.931 14.2551 36.9513L14.2411 39.0886C14.2404 39.1369 14.2578 39.1446 14.2931 39.1117C14.4451 38.9728 14.5491 38.8017 14.7341 38.7171C15.7541 38.256 16.9301 38.5097 17.4541 39.5356C18.1381 40.8755 17.7671 43.0128 16.0281 43.2332C15.3361 43.3211 14.7558 43.1205 14.2871 42.6312C14.2371 42.5789 14.2151 42.5886 14.2211 42.6604ZM15.4741 42.5849C17.3081 42.7832 17.4511 39.7117 16.0771 39.2406C13.9281 38.5027 13.4981 42.3705 15.4741 42.5849Z" fill="#6E4675"/>
<path d="M19.381 36.8758H18.751C18.7162 36.8758 18.688 36.9042 18.688 36.9393V37.7366C18.688 37.7716 18.7162 37.8 18.751 37.8H19.381C19.4158 37.8 19.444 37.7716 19.444 37.7366V36.9393C19.444 36.9042 19.4158 36.8758 19.381 36.8758Z" fill="#6E4675"/>
<path d="M21.322 36.8758H20.678C20.6482 36.8758 20.624 36.9002 20.624 36.9302V43.1034C20.624 43.1334 20.6482 43.1577 20.678 43.1577H21.322C21.3518 43.1577 21.376 43.1334 21.376 43.1034V36.9302C21.376 36.9002 21.3518 36.8758 21.322 36.8758Z" fill="#6E4675"/>
<path d="M33.4779 40.649L33.4769 43.0842C33.4769 43.0941 33.475 43.1039 33.4712 43.113C33.4675 43.1221 33.462 43.1303 33.4552 43.1373C33.4483 43.1442 33.4401 43.1497 33.4311 43.1533C33.4222 43.157 33.4126 43.1589 33.4029 43.1587L32.7129 43.1517C32.6964 43.1514 32.6806 43.1446 32.669 43.1327C32.6574 43.1209 32.6509 43.1049 32.6509 43.0883L32.6499 36.9463C32.6499 36.9047 32.6702 36.8836 32.7109 36.8829C33.9729 36.8654 34.9346 36.8651 35.5959 36.8819C37.8989 36.9403 37.8899 40.5292 35.6489 40.5584C34.9456 40.5678 34.2416 40.5779 33.5369 40.5886C33.5212 40.5889 33.5062 40.5953 33.4951 40.6066C33.4841 40.6179 33.4779 40.6331 33.4779 40.649ZM33.4709 37.6591L33.4789 39.8114C33.4789 39.8314 33.4868 39.8506 33.5009 39.8648C33.5149 39.879 33.534 39.8869 33.5539 39.8869L35.3309 39.8809C35.6332 39.8797 35.9227 39.769 36.1357 39.573C36.3487 39.3771 36.4679 39.1119 36.4669 38.8359V38.6144C36.4664 38.4777 36.4365 38.3424 36.3787 38.2163C36.3209 38.0902 36.2365 37.9757 36.1303 37.8794C36.0241 37.7831 35.8981 37.7069 35.7596 37.6551C35.621 37.6033 35.4726 37.5769 35.3229 37.5775L33.5459 37.5836C33.526 37.5836 33.5069 37.5915 33.4929 37.6057C33.4788 37.6198 33.4709 37.639 33.4709 37.6591Z" fill="#6E4675"/>
<path d="M41.514 36.8779H40.866C40.8372 36.8779 40.814 36.9013 40.814 36.9302V43.1034C40.814 43.1323 40.8372 43.1557 40.866 43.1557H41.514C41.5427 43.1557 41.566 43.1323 41.566 43.1034V36.9302C41.566 36.9013 41.5427 36.8779 41.514 36.8779Z" fill="#6E4675"/>
<path d="M60.3502 42.6131C60.0388 42.9997 59.6308 43.2054 59.1262 43.2302C57.9902 43.2873 57.2722 42.7758 56.9722 41.696C56.5962 40.3419 57.0572 38.7081 58.6482 38.5077C59.2922 38.4272 59.8565 38.6349 60.3412 39.1309C60.3449 39.1349 60.3497 39.1376 60.355 39.1387C60.3603 39.1398 60.3658 39.1393 60.3709 39.1371C60.3759 39.1349 60.3803 39.1313 60.3834 39.1266C60.3865 39.1219 60.3881 39.1163 60.3882 39.1107L60.3772 36.9362C60.3772 36.9208 60.3833 36.9059 60.3942 36.895C60.405 36.884 60.4198 36.8779 60.4352 36.8779L61.0762 36.8728C61.1088 36.8728 61.1252 36.8893 61.1252 36.9221V43.0852C61.1252 43.1342 61.1008 43.1587 61.0522 43.1587L60.4322 43.1577C60.4234 43.1578 60.4147 43.1559 60.4066 43.1524C60.3985 43.1488 60.3913 43.1436 60.3854 43.1371C60.3794 43.1305 60.3749 43.1228 60.3721 43.1144C60.3693 43.106 60.3683 43.0971 60.3692 43.0883L60.4052 42.6352C60.4112 42.5681 60.3928 42.5607 60.3502 42.6131ZM59.9782 42.1772C60.7402 41.2993 60.5072 39.2205 59.0982 39.1601C57.8372 39.1047 57.5282 40.3027 57.6792 41.3245C57.7325 41.6862 57.8718 41.9815 58.0972 42.2104C58.6052 42.7268 59.4972 42.7319 59.9782 42.1772Z" fill="#6E4675"/>
<path d="M62.989 36.8753L62.351 36.8764C62.3173 36.8765 62.2901 36.904 62.2901 36.9379L62.2915 37.7372C62.2916 37.7712 62.3189 37.7986 62.3526 37.7985L62.9906 37.7974C63.0243 37.7974 63.0516 37.7698 63.0515 37.7359L63.0501 36.9366C63.0501 36.9027 63.0227 36.8752 62.989 36.8753Z" fill="#6E4675"/>
<path d="M78.326 39.2607L77.69 39.2688C77.6447 39.2695 77.6214 39.247 77.62 39.2013L77.605 38.6809C77.6037 38.6299 77.628 38.6047 77.678 38.6054L78.329 38.6084C78.3361 38.6084 78.3431 38.607 78.3497 38.6042C78.3562 38.6014 78.3622 38.5973 78.3672 38.5922C78.3722 38.587 78.3762 38.5809 78.3789 38.5742C78.3816 38.5675 78.383 38.5603 78.383 38.553L78.381 37.2725C78.381 37.2416 78.396 37.2265 78.426 37.2272L79.072 37.2393C79.1087 37.2406 79.127 37.2594 79.127 37.2956L79.119 38.4775C79.1184 38.5634 79.1607 38.606 79.246 38.6054L79.973 38.6013C80.009 38.6007 80.027 38.6188 80.027 38.6557L80.026 39.2164C80.026 39.2534 80.0077 39.2715 79.971 39.2708L79.199 39.2527C79.1891 39.2524 79.1793 39.2541 79.1701 39.2577C79.1609 39.2613 79.1525 39.2666 79.1454 39.2735C79.1383 39.2803 79.1327 39.2885 79.1288 39.2976C79.125 39.3066 79.123 39.3164 79.123 39.3262C79.123 40.2221 79.1244 41.1232 79.127 42.0292C79.128 42.6201 79.575 42.4923 79.973 42.4842C80.0077 42.4829 80.025 42.5 80.025 42.5356L80.026 43.1114C80.026 43.1189 80.0246 43.1262 80.0217 43.1331C80.0188 43.1399 80.0145 43.1461 80.0092 43.1513C80.0039 43.1565 79.9976 43.1605 79.9907 43.1632C79.9838 43.1658 79.9764 43.1671 79.969 43.1668C79.297 43.1487 78.388 43.3047 78.39 42.2809C78.392 41.2909 78.3867 40.3 78.374 39.3081C78.374 39.2758 78.358 39.2601 78.326 39.2607Z" fill="#6E4675"/>
<path d="M12.5745 41.2213C12.5754 41.4825 12.5251 41.7413 12.4267 41.983C12.3282 42.2247 12.1834 42.4445 12.0006 42.6299C11.8177 42.8153 11.6004 42.9626 11.361 43.0634C11.1216 43.1642 10.8649 43.2165 10.6054 43.2175L10.2354 43.2188C9.7113 43.2206 9.20797 43.0128 8.83611 42.641C8.46425 42.2693 8.25431 41.764 8.25248 41.2364L8.25001 40.5257C8.24911 40.2645 8.29932 40.0056 8.39778 39.7639C8.49625 39.5222 8.64104 39.3024 8.82389 39.1171C9.00673 38.9317 9.22406 38.7844 9.46345 38.6836C9.70284 38.5828 9.95961 38.5304 10.2191 38.5295L10.5891 38.5282C11.1132 38.5264 11.6165 38.7342 11.9884 39.106C12.3602 39.4777 12.5702 39.9829 12.572 40.5105L12.5745 41.2213ZM10.4092 42.6091C10.7858 42.6091 11.147 42.4266 11.4133 42.1019C11.6796 41.7772 11.8292 41.3367 11.8292 40.8775C11.8292 40.4183 11.6796 39.9779 11.4133 39.6531C11.147 39.3284 10.7858 39.146 10.4092 39.146C10.2228 39.146 10.0381 39.1908 9.86582 39.2778C9.69354 39.3648 9.537 39.4923 9.40514 39.6531C9.27328 39.8139 9.16868 40.0048 9.09732 40.2149C9.02596 40.425 8.98923 40.6501 8.98923 40.8775C8.98923 41.1049 9.02596 41.3301 9.09732 41.5401C9.16868 41.7502 9.27328 41.9411 9.40514 42.1019C9.537 42.2627 9.69354 42.3902 9.86582 42.4773C10.0381 42.5643 10.2228 42.6091 10.4092 42.6091Z" fill="#6E4675"/>
<path d="M23.1231 41.102C23.1124 41.102 23.1017 41.1042 23.0919 41.1086C23.0821 41.1129 23.0733 41.1194 23.066 41.1274C23.0588 41.1355 23.0532 41.145 23.0498 41.1553C23.0464 41.1657 23.0451 41.1767 23.0461 41.1876C23.1314 42.1272 23.6411 42.596 24.5751 42.594C25.1118 42.5926 25.4598 42.3097 25.6191 41.7453C25.6226 41.7328 25.6301 41.7218 25.6404 41.714C25.6506 41.7062 25.6632 41.702 25.6761 41.702L26.2991 41.703C26.3078 41.703 26.3164 41.705 26.3242 41.7086C26.3321 41.7123 26.339 41.7177 26.3446 41.7243C26.3501 41.7309 26.3541 41.7387 26.3563 41.747C26.3584 41.7553 26.3587 41.764 26.3571 41.7725C26.1891 42.6302 25.5991 43.1104 24.7451 43.2352C24.3231 43.2976 23.9341 43.2547 23.5781 43.1064C22.0681 42.4792 21.8971 40.2383 22.8991 39.1369C23.6951 38.2621 25.1711 38.2651 25.9191 39.2195C26.3058 39.7127 26.4758 40.3289 26.4291 41.0678C26.4278 41.0899 26.4161 41.101 26.3941 41.101L23.1231 41.102ZM23.0751 40.4356L25.6341 40.4436C25.6351 40.4438 25.6361 40.4437 25.6371 40.4434C25.6381 40.4431 25.6389 40.4426 25.6397 40.442C25.6405 40.4413 25.6411 40.4405 25.6415 40.4395C25.6419 40.4386 25.6421 40.4376 25.6421 40.4366C25.6431 40.1004 25.5093 39.7776 25.27 39.5392C25.0307 39.3008 24.7056 39.1662 24.3661 39.1651H24.3521C24.0128 39.164 23.6869 39.2964 23.4462 39.5331C23.2054 39.7698 23.0694 40.0915 23.0681 40.4275C23.068 40.4285 23.068 40.4295 23.0683 40.4305C23.0686 40.4315 23.0691 40.4324 23.0698 40.4332C23.0704 40.4339 23.0712 40.4345 23.0722 40.435C23.0731 40.4354 23.0741 40.4356 23.0751 40.4356Z" fill="#6E4675"/>
<path d="M27.923 39.4852C28.285 38.8601 28.747 38.4423 29.508 38.5208C29.544 38.5242 29.5616 38.544 29.561 38.5802L29.556 39.2436C29.556 39.2852 29.5353 39.3057 29.494 39.305C28.123 39.2779 27.889 40.3389 27.924 41.4755C27.9313 41.7252 27.93 42.2705 27.92 43.1114C27.9193 43.143 27.9033 43.1587 27.872 43.1587L27.231 43.1557C27.2144 43.1554 27.1987 43.1487 27.1871 43.1371C27.1755 43.1254 27.169 43.1097 27.169 43.0933L27.168 38.6587C27.168 38.6211 27.1866 38.6024 27.224 38.6024L27.815 38.6044C27.8239 38.6044 27.8327 38.6062 27.8409 38.6097C27.8491 38.6132 27.8566 38.6184 27.8627 38.6249C27.8689 38.6314 27.8737 38.6391 27.8768 38.6475C27.88 38.6559 27.8814 38.6648 27.881 38.6738L27.857 39.4651C27.8567 39.4732 27.8592 39.4811 27.8639 39.4877C27.8686 39.4943 27.8752 39.4992 27.8828 39.5015C27.8905 39.5038 27.8985 39.5035 27.9058 39.5005C27.9131 39.4976 27.9191 39.4922 27.923 39.4852Z" fill="#6E4675"/>
<path d="M43.2538 41.1685C43.2468 41.9698 43.7328 42.4973 44.5118 42.5919C45.1271 42.6664 45.5704 42.3872 45.8418 41.7544C45.8571 41.7188 45.8841 41.701 45.9228 41.701L46.4948 41.704C46.5381 41.704 46.5554 41.7255 46.5468 41.7685C46.3798 42.6171 45.7958 43.1134 44.9508 43.2282C41.7118 43.6701 41.6088 38.3628 44.7398 38.5077C46.0758 38.5701 46.6818 39.8778 46.6338 41.0446C46.633 41.0601 46.6265 41.0747 46.6155 41.0854C46.6045 41.0961 46.5899 41.102 46.5748 41.102H43.3198C43.2758 41.102 43.2538 41.1242 43.2538 41.1685ZM43.2698 40.4396L45.8218 40.4436C45.8239 40.4436 45.8259 40.4428 45.8274 40.4413C45.8289 40.4398 45.8298 40.4377 45.8298 40.4356C45.8303 40.0986 45.6962 39.7753 45.4569 39.5366C45.2176 39.298 44.8927 39.1636 44.5538 39.1631H44.5418C44.3739 39.1628 44.2077 39.1954 44.0525 39.259C43.8974 39.3226 43.7564 39.416 43.6375 39.5338C43.5186 39.6515 43.4243 39.7915 43.3598 39.9455C43.2953 40.0995 43.262 40.2647 43.2618 40.4315C43.2618 40.4337 43.2626 40.4357 43.2641 40.4372C43.2656 40.4387 43.2677 40.4396 43.2698 40.4396Z" fill="#6E4675"/>
<path d="M49.5388 45H48.8748C48.1438 44.8681 47.5878 44.6215 47.3228 43.8524C47.3145 43.8285 47.312 43.8029 47.3155 43.7778C47.319 43.7527 47.3285 43.7289 47.3431 43.7082C47.3577 43.6876 47.377 43.6708 47.3994 43.6593C47.4218 43.6478 47.4466 43.6418 47.4718 43.6419H47.9788C47.9949 43.642 48.0106 43.6468 48.0241 43.6557C48.0376 43.6646 48.0482 43.6773 48.0548 43.6923C48.1178 43.8443 48.1588 43.9903 48.2998 44.0879C49.0698 44.6225 50.2268 44.4554 50.4858 43.4326C50.5645 43.1238 50.6025 42.8091 50.5998 42.4883C50.5991 42.4446 50.5855 42.4399 50.5588 42.4742C49.9841 43.199 49.2568 43.3916 48.3768 43.052C47.2448 42.6141 46.9608 41.1141 47.2498 40.0671C47.5418 39.0114 48.2118 38.4906 49.2598 38.5047C49.8128 38.5117 50.2228 38.7181 50.5368 39.1591C50.5835 39.2248 50.6051 39.2171 50.6018 39.1359L50.5798 38.6587C50.5795 38.6517 50.5807 38.6447 50.5832 38.6381C50.5857 38.6315 50.5894 38.6255 50.5943 38.6204C50.5992 38.6153 50.605 38.6113 50.6114 38.6085C50.6179 38.6058 50.6248 38.6044 50.6318 38.6044L51.2248 38.6054C51.2708 38.606 51.2938 38.6295 51.2938 38.6758C51.2965 39.8591 51.2951 41.0409 51.2898 42.2215C51.2858 43.0463 51.2285 43.599 51.1178 43.8795C50.8658 44.5191 50.3395 44.8926 49.5388 45ZM49.7538 39.2547C48.8158 38.8903 48.0948 39.5245 47.9728 40.4446C47.8568 41.3084 48.0918 42.5144 49.1758 42.5406C50.7998 42.5799 50.9938 39.7349 49.7538 39.2547Z" fill="#6E4675"/>
<path d="M52.9369 41.1715C52.9909 42.0265 53.4015 42.495 54.1689 42.5768C54.8159 42.6453 55.3229 42.4057 55.5069 41.7564C55.5112 41.741 55.5204 41.7275 55.533 41.7179C55.5456 41.7083 55.561 41.7031 55.5769 41.703H56.1979C56.2365 41.703 56.2519 41.7222 56.2439 41.7604C55.9749 43.1164 54.5559 43.5423 53.4029 43.0822C52.0659 42.5497 51.8599 40.5413 52.5489 39.445C52.9429 38.8181 53.5332 38.5044 54.3199 38.5037C55.7099 38.5027 56.3949 39.8154 56.3179 41.0597C56.3159 41.0879 56.3012 41.102 56.2739 41.102L53.0009 41.103C52.9921 41.103 52.9834 41.1048 52.9754 41.1083C52.9674 41.1118 52.9601 41.1169 52.9541 41.1233C52.9481 41.1297 52.9435 41.1373 52.9405 41.1456C52.9376 41.1539 52.9363 41.1627 52.9369 41.1715ZM55.5209 40.3732C55.4999 39.5839 54.7229 39.0524 53.9949 39.1933C53.4595 39.2973 53.1095 39.6675 52.9449 40.3037C52.9222 40.3896 52.9549 40.4326 53.0429 40.4326L55.4599 40.4356C55.5012 40.4356 55.5215 40.4148 55.5209 40.3732Z" fill="#6E4675"/>
<path d="M64.7362 41.1674C64.7715 41.9399 65.1182 42.3997 65.7762 42.5466C66.4682 42.7007 67.0932 42.4812 67.3042 41.7544C67.3142 41.7195 67.3369 41.702 67.3722 41.702L67.9932 41.704C68.0259 41.704 68.0392 41.7205 68.0332 41.7534C67.8905 42.4997 67.4722 42.9685 66.7782 43.1597C65.6312 43.4758 64.5052 43.0107 64.1232 41.8621C63.6142 40.3349 64.3152 38.4634 66.1512 38.5027C67.5092 38.5319 68.1872 39.7913 68.1022 41.0577C68.1002 41.0866 68.0849 41.101 68.0562 41.101L64.7972 41.103C64.7889 41.103 64.7808 41.1047 64.7732 41.108C64.7655 41.1112 64.7587 41.116 64.753 41.1221C64.7473 41.1281 64.7428 41.1352 64.74 41.143C64.7371 41.1508 64.7358 41.1591 64.7362 41.1674ZM64.7672 40.4376L67.3052 40.4416C67.3079 40.4416 67.3104 40.4405 67.3123 40.4387C67.3142 40.4368 67.3152 40.4342 67.3152 40.4315V40.4295C67.3157 40.0942 67.1823 39.7724 66.9443 39.5349C66.7064 39.2974 66.3833 39.1636 66.0462 39.1631H66.0302C65.8633 39.1628 65.698 39.1953 65.5437 39.2586C65.3894 39.3219 65.2491 39.4148 65.1309 39.532C65.0127 39.6492 64.9188 39.7885 64.8547 39.9418C64.7906 40.0951 64.7575 40.2595 64.7572 40.4255V40.4275C64.7572 40.4302 64.7583 40.4327 64.7601 40.4346C64.762 40.4365 64.7646 40.4376 64.7672 40.4376Z" fill="#6E4675"/>
<path d="M69.6241 39.2396C69.7841 39.0735 69.9281 38.8671 70.1171 38.7544C70.9101 38.2802 72.2291 38.4181 72.5351 39.4047C72.5858 39.5691 72.6148 39.9987 72.6221 40.6933C72.6301 41.4906 72.6298 42.2893 72.6211 43.0893C72.6211 43.1356 72.5978 43.1587 72.5511 43.1587L71.9381 43.1547C71.9205 43.1544 71.9038 43.1473 71.8914 43.1349C71.8791 43.1225 71.8721 43.1057 71.8721 43.0883C71.8755 42.0795 71.8775 41.0728 71.8781 40.0681C71.8791 39.1117 70.7831 38.9436 70.1691 39.3765C69.6211 39.7631 69.6331 40.3399 69.6301 41.0738C69.6281 41.7523 69.6271 42.4312 69.6271 43.1104C69.6271 43.1238 69.6219 43.1366 69.6125 43.146C69.6031 43.1554 69.5904 43.1607 69.5771 43.1607L68.9541 43.1557C68.9115 43.155 68.8901 43.1336 68.8901 43.0913L68.8911 38.6597C68.8911 38.6221 68.9101 38.6034 68.9481 38.6034L69.5081 38.6054C69.5821 38.606 69.6158 38.6433 69.6091 38.7171L69.5651 39.2124C69.5591 39.2768 69.5788 39.2859 69.6241 39.2396Z" fill="#6E4675"/>
<path d="M76.4901 41.997C76.5271 41.555 76.1061 41.3144 75.7271 41.244C75.0005 41.1097 74.4821 40.9631 74.1721 40.804C73.6808 40.5517 73.4715 40.1634 73.5441 39.6393C73.7111 38.4342 75.4391 38.3114 76.2911 38.6648C76.7765 38.8661 77.0355 39.2695 77.0681 39.8748C77.0701 39.9117 77.0528 39.9302 77.0161 39.9302L76.3791 39.9262C76.3365 39.9262 76.3131 39.9047 76.3091 39.8617C76.2341 39.1178 75.2091 39.0614 74.7041 39.2607C74.2101 39.455 74.2271 39.9191 74.6381 40.1768C75.4711 40.6993 77.4441 40.4064 77.2831 41.9517C77.2031 42.7148 76.5981 43.1305 75.8731 43.207C74.7671 43.3228 73.5671 43.1386 73.4441 41.7795C73.4433 41.7706 73.4443 41.7615 73.4472 41.753C73.45 41.7445 73.4546 41.7366 73.4606 41.73C73.4666 41.7234 73.474 41.7181 73.4822 41.7145C73.4904 41.7109 73.4992 41.709 73.5081 41.7091L74.0981 41.7111C74.1421 41.7111 74.1691 41.7325 74.1791 41.7755C74.2678 42.1527 74.4725 42.3953 74.7931 42.5034C75.2221 42.6473 76.4341 42.6825 76.4901 41.997Z" fill="#6E4675"/>
<path d="M19.3868 38.6044H18.7508C18.7204 38.6044 18.6958 38.6292 18.6958 38.6597V43.1013C18.6958 43.1319 18.7204 43.1567 18.7508 43.1567H19.3868C19.4172 43.1567 19.4418 43.1319 19.4418 43.1013V38.6597C19.4418 38.6292 19.4172 38.6044 19.3868 38.6044Z" fill="#6E4675"/>
<path d="M62.9899 38.6044H62.3539C62.3208 38.6044 62.2939 38.6314 62.2939 38.6648V43.0963C62.2939 43.1297 62.3208 43.1567 62.3539 43.1567H62.9899C63.0231 43.1567 63.0499 43.1297 63.0499 43.0963V38.6648C63.0499 38.6314 63.0231 38.6044 62.9899 38.6044Z" fill="#6E4675"/>
<path d="M86.2511 42.6896C85.6785 43.2346 85.0198 43.3846 84.2751 43.1396C82.6751 42.6131 82.5241 40.0893 83.8521 39.1832C84.8371 38.5107 86.5231 38.8651 86.7121 40.2201C86.7168 40.255 86.7015 40.2725 86.6661 40.2725L86.2521 40.2674C86.2095 40.2674 86.1818 40.2466 86.1691 40.205C86.0118 39.6668 85.6465 39.3775 85.0731 39.3372C83.0041 39.1903 82.9691 42.9624 85.1061 42.7601C85.7921 42.6956 86.1861 42.2832 86.2881 41.5228C86.2898 41.5103 86.2889 41.4976 86.2853 41.4854C86.2817 41.4733 86.2756 41.4621 86.2673 41.4526C86.2591 41.4431 86.2489 41.4354 86.2375 41.4302C86.2261 41.4249 86.2137 41.4222 86.2011 41.4221L85.0061 41.4242C84.9608 41.4242 84.9381 41.4017 84.9381 41.3567L84.9391 41.0034C84.9391 40.9651 84.9578 40.946 84.9951 40.946H86.6981C86.7183 40.946 86.7376 40.9539 86.7519 40.9681C86.7661 40.9822 86.7741 41.0015 86.7741 41.0215L86.7731 43.0913C86.7731 43.1015 86.7711 43.1115 86.7672 43.1209C86.7633 43.1302 86.7576 43.1387 86.7504 43.1458C86.7432 43.1528 86.7347 43.1583 86.7254 43.1619C86.716 43.1655 86.7061 43.1672 86.6961 43.1668L86.4901 43.1587C86.4649 43.1576 86.4407 43.1481 86.4214 43.1317C86.402 43.1153 86.3886 43.093 86.3831 43.0681L86.3061 42.7067C86.2975 42.6678 86.2791 42.6621 86.2511 42.6896Z" fill="#6E4675"/>
<path d="M93.016 40.4779C93.1493 40.2638 93.3493 40.1356 93.616 40.0933C94.2846 39.9859 94.7666 40.1685 95.062 40.6409C95.618 41.5329 95.348 43.1366 94.077 43.2081C93.6256 43.2336 93.274 43.097 93.022 42.7983C92.9973 42.7695 92.9836 42.7742 92.981 42.8124L92.959 43.1023C92.9556 43.1473 92.9313 43.1691 92.886 43.1678L92.546 43.1537C92.5284 43.1529 92.5119 43.1454 92.4998 43.1326C92.4877 43.1198 92.4809 43.1029 92.481 43.0852L92.49 39.0352C92.4899 39.0187 92.4961 39.0027 92.5073 38.9907C92.5185 38.9787 92.5338 38.9716 92.55 38.9708L92.902 38.9497C92.9111 38.9491 92.9202 38.9505 92.9288 38.9536C92.9374 38.9567 92.9453 38.9616 92.9519 38.9679C92.9586 38.9743 92.9639 38.9819 92.9675 38.9903C92.9711 38.9988 92.973 39.0079 92.973 39.0171L92.975 40.4658C92.9747 40.4707 92.9762 40.4756 92.9791 40.4796C92.9819 40.4836 92.986 40.4866 92.9908 40.488C92.9955 40.4894 93.0005 40.4891 93.0051 40.4873C93.0097 40.4855 93.0135 40.4821 93.016 40.4779ZM93.9041 42.7941C94.027 42.7917 94.1481 42.7594 94.2605 42.6989C94.373 42.6384 94.4745 42.551 94.5593 42.4417C94.6442 42.3323 94.7107 42.2032 94.755 42.0616C94.7994 41.92 94.8207 41.7687 94.8178 41.6165C94.8149 41.4642 94.7878 41.3139 94.7381 41.1741C94.6884 41.0343 94.617 40.9079 94.5281 40.8019C94.4391 40.6959 94.3343 40.6125 94.2196 40.5564C94.105 40.5003 93.9827 40.4727 93.8598 40.475C93.7369 40.4774 93.6158 40.5098 93.5034 40.5702C93.391 40.6307 93.2894 40.7181 93.2046 40.8274C93.1197 40.9368 93.0532 41.066 93.0089 41.2075C92.9646 41.3491 92.9432 41.5004 92.9461 41.6527C92.949 41.8049 92.9761 41.9552 93.0258 42.095C93.0755 42.2348 93.1469 42.3613 93.2359 42.4673C93.3248 42.5733 93.4296 42.6567 93.5443 42.7127C93.6589 42.7688 93.7812 42.7965 93.9041 42.7941Z" fill="#6E4675"/>
<path d="M98.6592 41.2268H96.6072C96.59 41.2268 96.5735 41.2337 96.5613 41.246C96.5491 41.2583 96.5422 41.2749 96.5422 41.2923L96.5482 43.0923C96.5484 43.101 96.5468 43.1097 96.5435 43.1179C96.5402 43.126 96.5354 43.1334 96.5292 43.1396C96.523 43.1458 96.5157 43.1507 96.5076 43.1539C96.4996 43.1572 96.4909 43.1589 96.4822 43.1587L96.0552 43.1557C96.038 43.1557 96.0215 43.1488 96.0093 43.1365C95.9971 43.1243 95.9902 43.1076 95.9902 43.0903L95.9962 39.0302C95.9962 39.013 96.0029 38.9965 96.0149 38.9843C96.0269 38.972 96.0432 38.965 96.0602 38.9648L96.4822 38.9617C96.4909 38.9616 96.4994 38.9632 96.5074 38.9664C96.5154 38.9697 96.5227 38.9745 96.5288 38.9806C96.535 38.9866 96.5399 38.9939 96.5432 39.0019C96.5465 39.0099 96.5482 39.0185 96.5482 39.0272L96.5452 40.6842C96.5452 40.7016 96.5521 40.7182 96.5643 40.7305C96.5765 40.7428 96.593 40.7497 96.6102 40.7497L98.6602 40.7527C98.6775 40.7527 98.694 40.7458 98.7062 40.7335C98.7184 40.7212 98.7252 40.7046 98.7252 40.6872L98.7322 39.0352C98.7322 39.0181 98.7389 39.0016 98.7509 38.9893C98.7629 38.9771 98.7792 38.9701 98.7962 38.9698L99.2132 38.9617C99.2219 38.9616 99.2304 38.9632 99.2384 38.9664C99.2464 38.9697 99.2537 38.9745 99.2598 38.9806C99.266 38.9866 99.2709 38.9939 99.2742 39.0019C99.2775 39.0099 99.2792 39.0185 99.2792 39.0272L99.2782 43.1003C99.2782 43.1092 99.2765 43.1179 99.273 43.1261C99.2696 43.1342 99.2645 43.1416 99.2581 43.1477C99.2518 43.1538 99.2443 43.1586 99.236 43.1617C99.2278 43.1648 99.219 43.1662 99.2102 43.1658L98.7942 43.1487C98.7775 43.1479 98.7617 43.1406 98.7502 43.1285C98.7386 43.1163 98.7322 43.1001 98.7322 43.0832L98.7242 41.2923C98.7242 41.2749 98.7174 41.2583 98.7052 41.246C98.693 41.2337 98.6765 41.2268 98.6592 41.2268Z" fill="#6E4675"/>
<path d="M88.0168 40.5091C88.4298 39.9815 89.3718 39.7933 89.7438 40.4839C89.7612 40.5161 89.7818 40.5185 89.8058 40.4909C90.3588 39.8577 91.6888 39.7963 91.6998 40.9188C91.7072 41.6456 91.7108 42.3721 91.7108 43.0983C91.7108 43.1066 91.7092 43.1148 91.706 43.1224C91.7028 43.1301 91.6982 43.137 91.6923 43.1428C91.6864 43.1486 91.6795 43.1532 91.6719 43.1563C91.6642 43.1594 91.656 43.1609 91.6478 43.1607L91.3008 43.1547C91.2805 43.1542 91.2611 43.1457 91.2469 43.131C91.2328 43.1163 91.2248 43.0967 91.2248 43.0762C91.2255 42.4775 91.2251 41.8859 91.2238 41.3013C91.2218 40.802 91.1508 40.4628 90.5728 40.505C89.9668 40.5483 89.8638 40.9087 89.8578 41.4715C89.8525 42.0144 89.8508 42.5581 89.8528 43.1023C89.8528 43.1399 89.8341 43.1587 89.7968 43.1587L89.4048 43.1607C89.3986 43.1609 89.3923 43.1597 89.3865 43.1574C89.3807 43.1551 89.3754 43.1516 89.3709 43.1472C89.3665 43.1428 89.3629 43.1376 89.3605 43.1318C89.3581 43.126 89.3568 43.1197 89.3568 43.1134C89.3555 42.4577 89.3535 41.8037 89.3508 41.1513C89.3488 40.7799 89.2308 40.4879 88.8248 40.496C88.1658 40.5091 88.0038 40.957 87.9988 41.5631C87.9955 42.0725 87.9962 42.5825 88.0008 43.0933C88.0015 43.1356 87.9808 43.1567 87.9388 43.1567L87.5548 43.1607C87.5095 43.1607 87.4868 43.1379 87.4868 43.0923L87.4878 40.1899C87.4878 40.1721 87.4946 40.155 87.5067 40.1422C87.5189 40.1294 87.5354 40.122 87.5528 40.1215L87.8948 40.1094C87.902 40.1091 87.9092 40.1103 87.916 40.1128C87.9228 40.1154 87.929 40.1192 87.9343 40.1242C87.9396 40.1291 87.9439 40.1351 87.9469 40.1417C87.9499 40.1483 87.9516 40.1555 87.9518 40.1628L87.9628 40.4909C87.9648 40.5466 87.9828 40.5527 88.0168 40.5091Z" fill="#6E4675"/>
</g>
<defs>
<clipPath id="clip0_1_212">
<rect width="100" height="45" fill="white"/>
</clipPath>
</defs>
</svg>
